<svg width="50" height="50" viewBox="0 0 50 50" fill="none" xmlns="http://www.w3.org/2000/svg">
<circle cx="25" cy="25" r="25" fill="#00476F"/>
<path d="M23.1178 8.05946C21.5801 8.20642 19.961 8.51952 18.6511 8.91568C17.569 9.24155 17.4225 9.33101 17.4225 9.66327C17.4225 9.95081 17.6015 10.1553 17.9107 10.2128C18.0327 10.2383 18.4558 10.1489 19.0986 9.9572C21.1732 9.35017 22.8981 9.09459 24.9809 9.09459C27.1776 9.09459 28.8292 9.3374 30.847 9.95081C33.0437 10.6153 34.9231 11.6057 36.7537 13.0754C37.5673 13.7271 37.7382 13.8293 37.9578 13.8293C38.3158 13.8293 38.6169 13.5865 38.6169 13.2926C38.6169 13.0115 38.267 12.66 37.1361 11.8166C34.4431 9.80384 30.9609 8.48118 27.3403 8.11058C26.4942 8.02112 23.8175 7.98917 23.1178 8.05946Z" fill="#00B0E8"/>
<path d="M15.2177 10.3022C13.6637 11.1009 11.1578 13.005 10.9951 13.529C10.8649 13.9188 11.3287 14.283 11.8169 14.1871C11.9389 14.1616 12.1504 14.0402 12.2887 13.9124C13.5986 12.7175 14.4285 12.1041 15.6571 11.4204C16.4462 10.9795 16.5683 10.8709 16.5683 10.6089C16.5683 10.3661 16.4869 10.2575 16.2347 10.1552C15.893 10.0147 15.7465 10.0338 15.2177 10.3022Z" fill="#00B0E8"/>
<path d="M22.7679 10.1553C19.9447 10.4939 17.2517 11.4843 15.055 12.9923C13.3545 14.1552 11.9063 15.7846 11.0358 17.5034C10.6452 18.2702 10.751 18.6472 11.3693 18.7239C11.8006 18.7814 12.0121 18.5897 12.4352 17.759C13.0698 16.5066 13.9485 15.4523 15.2258 14.4108C17.3819 12.6537 20.1807 11.5355 23.2317 11.2096C24.1022 11.1201 25.8677 11.1137 26.7464 11.2096C29.0245 11.446 31.327 12.1936 33.2064 13.3118C33.8573 13.6952 35.0289 14.5897 35.6065 15.1392C36.5178 16.0146 37.3802 17.2223 37.8683 18.3085C38.1938 19.0433 38.6494 19.7398 38.8772 19.8612C39.1294 20.0018 39.4467 19.989 39.7071 19.8293C40.0163 19.6376 39.9918 19.3245 39.6013 18.7111C39.4305 18.4299 39.2189 18.0466 39.1457 17.8549C38.9098 17.2734 38.1694 16.0977 37.6161 15.4396C35.3787 12.7495 31.986 10.9412 27.9099 10.2511C26.8522 10.0722 23.9314 10.0147 22.7679 10.1553Z" fill="#00B0E8"/>
<path d="M22.9551 12.2064C19.359 12.6792 16.1615 14.4044 14.339 16.8517C13.5661 17.8932 13.1186 18.8261 12.8095 20.0465C12.5817 20.973 12.5654 22.5705 12.7769 23.4714C13.0617 24.6918 14.0461 26.9027 14.4204 27.1647C14.6807 27.35 15.1282 27.3563 15.3479 27.1838C15.6408 26.9538 15.6245 26.7941 15.234 26.0145C14.7133 24.9922 14.4041 24.219 14.1926 23.4586C13.9485 22.5449 13.9485 21.1008 14.2007 20.1743C14.6726 18.398 15.6489 16.9795 17.2599 15.7079C21.2791 12.5387 27.6089 12.315 32.0593 15.1904C32.4986 15.4779 32.6776 15.5546 32.8973 15.5546C33.2715 15.5546 33.5726 15.3182 33.5726 15.0242C33.5726 14.7751 33.4749 14.6728 32.8403 14.2639C31.1725 13.184 29.0001 12.4364 26.7627 12.1744C25.9735 12.0786 23.7524 12.0978 22.9551 12.2064Z" fill="#00B0E8"/>
<path d="M24.5334 14.2704C24.387 14.3598 24.3381 14.4557 24.3381 14.6601C24.3381 15.0116 24.5578 15.1522 25.1761 15.1969C26.8278 15.3311 27.7227 15.5036 28.6909 15.8934C30.7981 16.7304 32.2057 18.0275 33.0844 19.9316C33.5969 21.0498 34.4837 22.283 35.5414 23.3629C36.2249 24.0594 38.6494 26.021 38.9341 26.1041C39.1782 26.1808 39.642 26.0657 39.7559 25.906C39.8047 25.8421 39.8372 25.6951 39.8372 25.5865C39.8372 25.4076 39.6583 25.2415 38.5436 24.3341C36.2493 22.4747 35.0777 21.101 34.2966 19.3438C33.2959 17.1138 31.091 15.3566 28.3004 14.5707C26.8847 14.1745 24.9321 14.0148 24.5334 14.2704Z" fill="#00B0E8"/>
<path d="M21.3197 14.6791C18.2524 15.6567 16.0313 17.7973 15.3723 20.3915C15.1851 21.1583 15.1851 22.5512 15.3804 23.286C15.7709 24.7301 16.7961 26.7173 18.106 28.5575C18.765 29.4712 19.9528 30.9281 20.2213 31.1389C20.4654 31.3306 20.9536 31.3242 21.1895 31.1262C21.4743 30.8897 21.4255 30.5894 21.0349 30.1549C19.5216 28.4617 18.0734 26.2636 17.2842 24.4681C16.6496 23.0432 16.4788 22.1614 16.6415 21.1327C16.9995 18.8516 18.708 16.9219 21.2465 15.9251C21.5638 15.8037 22.0031 15.6503 22.2228 15.5864C22.7354 15.4395 22.9143 15.2861 22.9143 14.9858C22.9143 14.6791 22.6459 14.4683 22.2553 14.4683C22.1007 14.4683 21.6777 14.5641 21.3197 14.6791Z" fill="#00B0E8"/>
<path d="M34.199 16.1298C33.8166 16.3662 33.8329 16.5834 34.2885 17.1713C34.8418 17.8869 35.0371 18.2128 35.4439 19.069C35.6391 19.4716 35.8995 19.9763 36.0378 20.1872C36.5748 21.037 37.6324 22.2191 38.5518 22.9795C38.9423 23.3118 39.0237 23.3501 39.3166 23.3501C39.7397 23.3501 40 23.152 40 22.8261C40 22.6408 39.9268 22.5258 39.6095 22.2511C38.1613 20.9859 37.3558 19.97 36.7456 18.6537C36.1842 17.4269 35.2405 16.1234 34.8662 16.0467C34.5489 15.9764 34.4187 15.9956 34.199 16.1298Z" fill="#00B0E8"/>
<path d="M24.2569 16.1936C21.1815 16.4492 18.6918 18.1872 17.984 20.5769C17.7643 21.3054 17.7806 22.4299 18.0247 23.1903C18.6105 25.005 20.3597 27.7781 22.174 29.7909C22.8737 30.5704 23.8338 31.5225 24.6474 32.2509C25.5668 33.0688 27.975 34.9857 28.2191 35.0815C28.7398 35.2924 29.2605 35.0624 29.2605 34.6215C29.2605 34.4042 29.1466 34.302 27.5275 33.0049C24.0209 30.2126 21.9706 27.9315 20.3678 25.0753C19.4973 23.5098 19.1068 22.3085 19.2044 21.4843C19.7007 17.5802 25.583 15.8486 29.0571 18.5897C29.83 19.1968 30.1473 19.5993 30.5704 20.5194C31.0586 21.5737 31.6444 22.4811 31.9047 22.5705C32.1651 22.6664 32.2871 22.6664 32.5393 22.5769C32.7509 22.5002 32.9217 22.2766 32.9217 22.0657C32.9217 21.9954 32.759 21.6887 32.5637 21.382C32.3685 21.0753 32.0918 20.5642 31.9535 20.2511C31.2538 18.692 30.2775 17.708 28.6747 16.9476C27.4462 16.3597 25.7539 16.0722 24.2569 16.1936Z" fill="#00B0E8"/>
<path d="M23.8581 18.3087C23.1665 18.4364 22.3367 18.8134 21.7834 19.2543C20.8641 19.9764 20.441 20.7815 20.441 21.8166C20.441 22.5386 20.6851 23.2798 20.978 23.446C21.2302 23.5801 21.6614 23.5674 21.8566 23.414C22.1007 23.2223 22.1333 23.0051 21.9705 22.6345C21.8729 22.4108 21.8241 22.1233 21.8241 21.7846C21.8322 21.0818 22.06 20.6473 22.6784 20.1297C23.9232 19.0818 25.8026 19.0179 27.1939 19.9764C27.5763 20.2447 27.8203 20.5834 28.2434 21.4715C28.9431 22.9156 29.9438 24.315 31.2537 25.6824C32.7345 27.2287 35.4438 29.3436 38.031 30.973C38.5762 31.3181 38.7714 31.4011 38.9992 31.4011C39.3735 31.4011 39.5606 31.3117 39.6582 31.0816C39.8047 30.7622 39.6501 30.5641 38.8365 30.0529C36.8676 28.8197 33.9386 26.5705 32.7508 25.3948C31.2537 23.9124 30.1066 22.3342 29.415 20.8006C29.2686 20.4748 29.0163 20.0403 28.8536 19.8422C28.2597 19.1265 27.2427 18.5451 26.1931 18.3342C25.6806 18.2256 24.3707 18.2128 23.8581 18.3087Z" fill="#00B0E8"/>
<path d="M10.393 19.7526C9.90488 20.0657 9.8642 22.4746 10.3117 24.2062C10.8975 26.4874 13.021 30.1039 15.356 32.8259C17.0646 34.8131 19.7901 37.3498 20.3027 37.4393C20.7339 37.5096 21.1163 37.2668 21.1244 36.9153C21.1244 36.6917 21.0105 36.5703 20.1156 35.8099C15.9743 32.2892 12.3457 27.0688 11.5646 23.5098C11.41 22.7941 11.3694 21.529 11.467 20.5897C11.5402 19.9763 11.5321 19.9699 11.3287 19.8037C11.0846 19.612 10.6534 19.5865 10.393 19.7526Z" fill="#00B0E8"/>
<path d="M24.0127 20.4683C23.5002 20.6983 23.1829 21.0433 23.0608 21.5098C22.9795 21.8165 22.9876 21.9315 23.1096 22.2765C23.6141 23.7142 25.0948 25.9826 26.6 27.6247C28.3411 29.5224 31.6443 32.1806 34.5082 33.9952C36.29 35.1198 36.8595 35.4265 37.1849 35.4265C37.7138 35.4265 38.0474 35.0176 37.8033 34.6598C37.7626 34.5959 37.2338 34.2572 36.6398 33.8994C33.8004 32.2189 30.5297 29.7653 28.5933 27.8611C27.0149 26.3148 25.2738 23.9187 24.6229 22.4107L24.3382 21.759L24.509 21.5801C24.7043 21.3756 25.1436 21.3117 25.3714 21.4459C25.4447 21.4906 25.6399 21.8165 25.8027 22.1679C26.8115 24.334 28.5282 26.4746 30.8307 28.4745C31.7745 29.2796 31.986 29.3819 32.4172 29.203C32.6939 29.0943 32.7589 28.9921 32.7589 28.679C32.7589 28.4937 32.6613 28.3787 32.165 27.9634C29.8463 26.0337 28.1133 23.9059 27.1044 21.759C26.5593 20.6088 26.0874 20.283 24.9809 20.283C24.509 20.283 24.3544 20.3149 24.0127 20.4683Z" fill="#00B0E8"/>
<path d="M33.1251 23.4459C32.7834 23.7142 32.8485 23.957 33.4098 24.5385C34.4513 25.6056 36.4771 27.2413 38.3321 28.5001C38.9993 28.9602 39.1213 28.9985 39.4874 28.9027C39.8048 28.826 39.9187 28.6854 39.9187 28.3787C39.9187 28.1295 40 28.1998 38.3321 27.0113C37.1524 26.1679 35.5089 24.8324 34.8418 24.1679C34.0119 23.35 33.9224 23.2861 33.6051 23.2861C33.4098 23.2861 33.2553 23.3372 33.1251 23.4459Z" fill="#00B0E8"/>
<path d="M21.8974 24.532C21.5963 24.7621 21.637 24.9921 22.1414 25.7716C23.1666 27.3882 24.4358 28.8834 25.9979 30.3466C28.2028 32.3977 31.4897 34.813 34.4187 36.5319C35.3055 37.0494 35.4194 37.0942 35.6716 37.0622C36.0866 37.0111 36.2574 36.8577 36.2574 36.5446C36.2574 36.2379 36.2412 36.2252 35.1591 35.5862C31.5629 33.4584 27.6414 30.4105 25.6318 28.1741C24.8589 27.3179 24.0941 26.3403 23.4757 25.4202C23.1991 24.9985 22.8981 24.5959 22.8086 24.5129C22.5808 24.3148 22.1577 24.3212 21.8974 24.532Z" fill="#00B0E8"/>
<path d="M15.6326 28.0209C15.0713 28.2765 15.1201 28.5513 15.95 29.6886C17.7724 32.1998 19.6274 34.0975 22.4669 36.3786C24.7857 38.238 27.6333 40.2508 28.1703 40.4105C28.7316 40.583 29.2767 40.0974 29.0001 39.6821C28.9432 39.599 28.3981 39.1965 27.796 38.7939C23.0852 35.6694 19.5298 32.4362 17.1948 29.1647C16.8612 28.6918 16.5113 28.2382 16.43 28.1551C16.2591 27.989 15.8605 27.9187 15.6326 28.0209Z" fill="#00B0E8"/>
<path d="M10.2222 29.037C9.83166 29.3437 9.9537 29.6312 11.2961 31.5289C13.2976 34.3468 15.4536 36.5832 18.7325 39.2605C19.3671 39.7716 19.7413 40.0336 19.904 40.0592C20.4003 40.1422 20.8641 39.7844 20.7502 39.4074C20.7095 39.2988 20.2458 38.8707 19.5867 38.334C18.9765 37.842 18.1955 37.1966 17.8619 36.8963C15.6001 34.9155 13.2569 32.2062 11.768 29.8676C11.5321 29.497 11.2717 29.1328 11.1741 29.0497C10.9544 28.8644 10.45 28.8581 10.2222 29.037Z" fill="#00B0E8"/>
<path d="M33.6864 29.7013C33.3528 29.8163 33.2064 30.1167 33.3528 30.3786C33.4993 30.6534 35.5577 32.0847 37.3395 33.1454C37.9253 33.4968 38.1043 33.5735 38.3646 33.5735C38.7633 33.5735 39.0236 33.369 39.0236 33.0559C39.0236 32.7812 38.9586 32.7173 38.2914 32.3275C37.5266 31.8802 36.1028 30.9473 35.1346 30.2636C34.679 29.9441 34.2641 29.6758 34.2315 29.6758C34.1908 29.6758 34.1095 29.663 34.0444 29.6438C33.9874 29.631 33.8247 29.6566 33.6864 29.7013Z" fill="#00B0E8"/>
<path d="M21.9381 31.8676C21.6696 31.9698 21.515 32.2446 21.5801 32.4618C21.6126 32.5577 21.9706 32.9411 22.3693 33.3117C23.3375 34.1998 26.421 36.6215 27.7228 37.5097C28.9025 38.3212 30.6843 39.4585 30.9446 39.5672C31.5386 39.8164 32.1406 39.3563 31.8965 38.8515C31.8721 38.794 31.5304 38.5512 31.1399 38.3148C28.9188 36.9346 26.4698 35.1647 24.6799 33.6503C23.9883 33.0625 23.2642 32.4427 23.0852 32.2637C22.5971 31.7973 22.3367 31.7078 21.9381 31.8676Z" fill="#00B0E8"/>
<path d="M11.467 34.4043C11.0114 34.5513 11.0033 34.9794 11.4589 35.5097C12.3132 36.5065 14.3553 38.5129 14.5831 38.5832C15.0306 38.7173 15.5432 38.4617 15.5432 38.0975C15.5432 37.8547 15.5594 37.8739 14.4448 36.794C14.0136 36.3723 13.3383 35.6758 12.9478 35.2477C12.1504 34.366 11.947 34.2509 11.467 34.4043Z" fill="#00B0E8"/>
<path d="M30.0903 35.6373C29.9195 35.7843 29.8544 36.0718 29.9602 36.2763C30.0171 36.3913 31.2945 37.2347 32.5474 37.9759C33.3692 38.4679 33.4587 38.5063 33.7271 38.4679C34.0933 38.4232 34.3048 38.2251 34.3048 37.9248C34.3048 37.6501 34.2153 37.5734 33.1983 36.9728C32.8322 36.7619 32.1569 36.3402 31.6931 36.0399C30.9772 35.5734 30.8063 35.4903 30.5541 35.4903C30.3588 35.4903 30.2124 35.5351 30.0903 35.6373Z" fill="#00B0E8"/>
<path d="M21.873 38.0655C21.7591 38.1613 21.694 38.2955 21.694 38.4425C21.694 38.6533 21.7673 38.7364 22.4507 39.2476C22.8575 39.5607 23.4921 40.0207 23.8501 40.2763C24.4359 40.6853 24.5335 40.73 24.8427 40.73C25.1112 40.73 25.2169 40.698 25.3471 40.5638C25.4447 40.468 25.518 40.3083 25.518 40.206C25.518 39.9888 25.3308 39.829 23.7443 38.6917C22.7598 37.9888 22.6378 37.9185 22.3612 37.9185C22.1415 37.9185 21.9951 37.9632 21.873 38.0655Z" fill="#00B0E8"/>
<path d="M5 24.5H45" stroke="#00CC39" stroke-width="2" stroke-linecap="round"/>
</svg>
