<svg width="70" height="70" viewBox="0 0 70 70" fill="none" xmlns="http://www.w3.org/2000/svg">
<circle cx="35" cy="35" r="33.5" stroke="#00B0E8" stroke-width="3"/>
<path d="M33.1833 8.34991C30.6268 8.60042 27.9351 9.13412 25.7574 9.80941C23.9584 10.3649 23.715 10.5174 23.715 11.0837C23.715 11.5739 24.0125 11.9224 24.5265 12.0204C24.7294 12.064 25.4328 11.9115 26.5013 11.5848C29.9505 10.55 32.818 10.1144 36.2807 10.1144C39.9328 10.1144 42.6786 10.5283 46.0331 11.5739C49.6851 12.7066 52.8097 14.3948 55.853 16.9C57.2057 18.0109 57.4897 18.1852 57.8549 18.1852C58.4501 18.1852 58.9505 17.7713 58.9505 17.2703C58.9505 16.791 58.3689 16.192 56.4888 14.7543C52.0116 11.3234 46.2224 9.06876 40.2033 8.43704C38.7966 8.28456 34.3465 8.2301 33.1833 8.34991Z" fill="#00B0E8"/>
<path d="M20.0494 12.1729C17.4659 13.5344 13.2998 16.7802 13.0293 17.6733C12.8129 18.3377 13.5839 18.9585 14.3954 18.7951C14.5983 18.7516 14.95 18.5446 15.18 18.3268C17.3577 16.29 18.7373 15.2444 20.7798 14.079C22.0918 13.3275 22.2947 13.1423 22.2947 12.6957C22.2947 12.2818 22.1594 12.0967 21.7401 11.9224C21.172 11.6828 20.9286 11.7155 20.0494 12.1729Z" fill="#00B0E8"/>
<path d="M32.6017 11.9224C27.9081 12.4997 23.4309 14.1879 19.7789 16.7584C16.9519 18.7407 14.5443 21.5181 13.097 24.448C12.4477 25.755 12.6236 26.3976 13.6516 26.5283C14.3684 26.6263 14.7201 26.2996 15.4235 24.8836C16.4785 22.7489 17.9393 20.9517 20.0629 19.1764C23.6474 16.1811 28.3004 14.275 33.3727 13.7196C34.8199 13.5671 37.7551 13.5562 39.2159 13.7196C43.0033 14.1226 46.8311 15.3969 49.9557 17.303C51.0378 17.9565 52.9855 19.4813 53.9459 20.418C55.4608 21.9102 56.8946 23.9687 57.7062 25.8203C58.2472 27.0729 59.0047 28.2601 59.3834 28.467C59.8027 28.7067 60.3302 28.6849 60.7631 28.4126C61.2771 28.0858 61.2365 27.5521 60.5872 26.5065C60.3032 26.0273 59.9515 25.3738 59.8298 25.047C59.4375 24.0559 58.2066 22.0518 57.2868 20.9299C53.5672 16.3445 47.9268 13.2621 41.1502 12.0858C39.3918 11.7808 34.5359 11.6828 32.6017 11.9224Z" fill="#00B0E8"/>
<path d="M32.9128 15.4187C26.9342 16.2247 21.6185 19.1655 18.5886 23.337C17.3036 25.1124 16.5597 26.7026 16.0457 28.7829C15.667 30.3622 15.6399 33.0852 15.9916 34.6209C16.465 36.7012 18.1017 40.4698 18.7239 40.9164C19.1567 41.2322 19.9006 41.2431 20.2658 40.949C20.7528 40.5569 20.7257 40.2846 20.0765 38.9558C19.2108 37.2131 18.6968 35.8952 18.3451 34.5991C17.9394 33.0416 17.9394 30.5801 18.3587 29.0007C19.1432 25.9728 20.7663 23.5548 23.4445 21.3874C30.1264 15.9851 40.6497 15.6038 48.0485 20.5051C48.7789 20.9953 49.0765 21.126 49.4417 21.126C50.0639 21.126 50.5644 20.723 50.5644 20.222C50.5644 19.7972 50.4021 19.6229 49.347 18.9258C46.5742 17.0851 42.9627 15.8108 39.243 15.3642C37.931 15.2008 34.2383 15.2335 32.9128 15.4187Z" fill="#00B0E8"/>
<path d="M35.5368 18.9367C35.2933 19.0892 35.2122 19.2526 35.2122 19.6011C35.2122 20.2002 35.5774 20.4398 36.6053 20.516C39.3512 20.7448 40.839 21.0388 42.4486 21.7032C45.9519 23.1301 48.2919 25.3411 49.7527 28.5868C50.6049 30.4929 52.0792 32.595 53.8376 34.4357C54.9738 35.6229 59.0046 38.9667 59.478 39.1083C59.8838 39.239 60.6548 39.043 60.8442 38.7707C60.9253 38.6617 60.9794 38.4112 60.9794 38.2261C60.9794 37.9211 60.6819 37.6379 58.8288 36.0913C55.0144 32.9218 53.0666 30.58 51.7681 27.5848C50.1044 23.7836 46.4388 20.7883 41.7994 19.4486C39.4458 18.7733 36.1996 18.501 35.5368 18.9367Z" fill="#00B0E8"/>
<path d="M30.194 19.6338C25.0947 21.3002 21.402 24.949 20.3064 29.3711C19.9953 30.6781 19.9953 33.0525 20.32 34.305C20.9692 36.7666 22.6735 40.1539 24.8512 43.2908C25.9468 44.8483 27.9216 47.3316 28.368 47.6911C28.7738 48.0178 29.5854 48.0069 29.9776 47.6693C30.451 47.2663 30.3699 46.7544 29.7206 46.0137C27.2048 43.1274 24.7971 39.3806 23.4851 36.32C22.43 33.8912 22.146 32.3881 22.4165 30.6345C23.0117 26.7461 25.8521 23.4568 30.0723 21.7577C30.5998 21.5508 31.3302 21.2894 31.6954 21.1804C32.5476 20.9299 32.8452 20.6685 32.8452 20.1566C32.8452 19.6338 32.3988 19.2744 31.7495 19.2744C31.4925 19.2744 30.7892 19.4378 30.194 19.6338Z" fill="#00B0E8"/>
<path d="M51.6059 22.1062C50.9702 22.5092 50.9972 22.8796 51.7547 23.8816C52.6745 25.1015 52.9991 25.657 53.6754 27.1165C54 27.8026 54.4329 28.6631 54.6628 29.0225C55.5555 30.4711 57.3139 32.4861 58.8424 33.7822C59.4916 34.3486 59.6269 34.414 60.1138 34.414C60.8172 34.414 61.25 34.0763 61.25 33.5208C61.25 33.205 61.1283 33.0089 60.6008 32.5406C58.1931 30.384 56.854 28.6522 55.8396 26.4085C54.9063 24.3173 53.3372 22.0954 52.715 21.9647C52.1875 21.8448 51.9711 21.8775 51.6059 22.1062Z" fill="#00B0E8"/>
<path d="M35.077 22.2151C29.9641 22.6508 25.8251 25.6134 24.6483 29.6869C24.2831 30.9286 24.3102 32.8455 24.716 34.1417C25.6898 37.2349 28.598 41.962 31.6143 45.3929C32.7775 46.7217 34.3736 48.3445 35.7262 49.5862C37.2547 50.9804 41.2584 54.2479 41.6642 54.4113C42.5299 54.7707 43.3955 54.3786 43.3955 53.6271C43.3955 53.2567 43.2062 53.0825 40.5145 50.8714C34.6847 46.1117 31.2761 42.2234 28.6115 37.3547C27.1642 34.6862 26.5149 32.6386 26.6773 31.2335C27.5023 24.5787 37.2817 21.627 43.0574 26.2996C44.3424 27.3343 44.8699 28.0205 45.5733 29.5889C46.3848 31.386 47.3587 32.9327 47.7915 33.0851C48.2244 33.2485 48.4273 33.2485 48.8466 33.096C49.1983 32.9653 49.4823 32.5841 49.4823 32.2247C49.4823 32.1049 49.2118 31.5821 48.8872 31.0593C48.5625 30.5365 48.1026 29.6651 47.8727 29.1314C46.7094 26.4738 45.0863 24.7965 42.4217 23.5004C40.3792 22.4983 37.5658 22.0082 35.077 22.2151Z" fill="#00B0E8"/>
<path d="M34.4141 25.8203C33.2644 26.0382 31.8847 26.6808 30.965 27.4323C29.4365 28.6631 28.7332 30.0355 28.7332 31.7999C28.7332 33.0307 29.1389 34.2942 29.6259 34.5773C30.0452 34.8061 30.7621 34.7843 31.0867 34.5229C31.4925 34.1961 31.5466 33.8258 31.2761 33.1941C31.1138 32.8129 31.0326 32.3227 31.0326 31.7455C31.0461 30.5474 31.4249 29.8067 32.4528 28.9245C34.5223 27.1383 37.6469 27.0293 39.9598 28.6631C40.5956 29.1206 41.0014 29.6978 41.7047 31.2118C42.868 33.6733 44.5317 36.0586 46.7094 38.3895C49.1711 41.0253 53.6753 44.6305 57.9766 47.4079C58.8829 47.996 59.2075 48.1376 59.5862 48.1376C60.2084 48.1376 60.5196 47.9851 60.6819 47.593C60.9253 47.0484 60.6683 46.7108 59.3157 45.8395C56.0424 43.7373 51.173 39.9034 49.1982 37.8993C46.7094 35.3724 44.8022 32.6822 43.6525 30.0681C43.409 29.5127 42.9897 28.772 42.7192 28.4344C41.7318 27.2145 40.041 26.2233 38.2961 25.8639C37.444 25.6788 35.2663 25.657 34.4141 25.8203Z" fill="#00B0E8"/>
<path d="M12.0284 28.2819C11.2169 28.8156 11.1492 32.9218 11.8932 35.8735C12.867 39.7618 16.3974 45.9266 20.2794 50.5665C23.1198 53.9538 27.6511 58.2779 28.5032 58.4303C29.2201 58.5502 29.8559 58.1363 29.8694 57.5372C29.8694 57.156 29.68 56.9491 28.1921 55.6529C21.3073 49.6516 15.2747 40.753 13.9762 34.6862C13.7192 33.4664 13.6516 31.3098 13.8139 29.7087C13.9356 28.6631 13.9221 28.6522 13.5839 28.369C13.1781 28.0423 12.4613 27.9987 12.0284 28.2819Z" fill="#00B0E8"/>
<path d="M34.6712 29.5017C33.819 29.8939 33.2915 30.482 33.0886 31.2771C32.9533 31.7999 32.9669 31.996 33.1698 32.5841C34.0084 35.0348 36.4701 38.9014 38.9725 41.7006C41.8671 44.9354 47.3587 49.4664 52.1199 52.5597C55.0821 54.4766 56.0289 54.9994 56.57 54.9994C57.4492 54.9994 58.0037 54.3023 57.5979 53.6924C57.5303 53.5835 56.6511 53.0062 55.6637 52.3963C50.9431 49.5317 45.5056 45.3493 42.2864 42.1035C39.6623 39.4677 36.7677 35.3833 35.6856 32.8129L35.2122 31.7019L35.4963 31.3969C35.8209 31.0484 36.5513 30.9395 36.93 31.1682C37.0518 31.2444 37.3764 31.7999 37.6469 32.399C39.3242 36.0913 42.1782 39.74 46.0061 43.1492C47.5751 44.5215 47.9268 44.6958 48.6437 44.3908C49.1035 44.2057 49.2118 44.0314 49.2118 43.4977C49.2118 43.1818 49.0494 42.9858 48.2243 42.2778C44.3694 38.9885 41.4883 35.3615 39.8111 31.7019C38.9048 29.7414 38.1203 29.1859 36.2808 29.1859C35.4963 29.1859 35.2393 29.2403 34.6712 29.5017Z" fill="#00B0E8"/>
<path d="M49.8204 34.5773C49.2523 35.0348 49.3605 35.4487 50.2938 36.4398C52.0252 38.2588 55.3932 41.0471 58.4771 43.1927C59.5863 43.9769 59.7892 44.0423 60.3978 43.8789C60.9254 43.7482 61.1147 43.5086 61.1147 42.9858C61.1147 42.561 61.25 42.6808 58.4771 40.655C56.5159 39.2172 53.7836 36.9409 52.6744 35.8081C51.2948 34.414 51.146 34.305 50.6185 34.305C50.2938 34.305 50.0368 34.3922 49.8204 34.5773Z" fill="#00B0E8"/>
<path d="M31.1544 36.4289C30.6539 36.821 30.7215 37.2132 31.5601 38.5419C33.2644 41.2976 35.3745 43.8462 37.9715 46.3405C41.6371 49.8367 47.1017 53.9538 51.9711 56.8837C53.4454 57.766 53.6348 57.8422 54.0541 57.7877C54.7439 57.7006 55.028 57.4392 55.028 56.9055C55.028 56.3827 55.0009 56.3609 53.202 55.2717C47.2234 51.6448 40.7038 46.4494 37.3629 42.6373C36.0779 41.1778 34.8064 39.5113 33.7784 37.9429C33.3185 37.224 32.8181 36.5379 32.6693 36.3963C32.2906 36.0586 31.5872 36.0695 31.1544 36.4289Z" fill="#00B0E8"/>
<path d="M20.7392 42.3759C19.8059 42.8115 19.8871 43.2799 21.2668 45.2186C24.2966 49.4991 27.3806 52.7339 32.1012 56.6223C35.9561 59.7918 40.6903 63.2227 41.583 63.495C42.5163 63.7891 43.4226 62.9613 42.9627 62.2534C42.868 62.1118 41.9617 61.4256 40.9608 60.7394C33.1292 55.4133 27.2183 49.9021 23.3363 44.3255C22.7817 43.5195 22.2001 42.7462 22.0648 42.6046C21.7808 42.3214 21.118 42.2016 20.7392 42.3759Z" fill="#00B0E8"/>
<path d="M11.7443 44.1076C11.0951 44.6304 11.298 45.1206 13.5298 48.3554C16.8572 53.1587 20.4416 56.9708 25.8927 61.5345C26.9477 62.4058 27.5699 62.8524 27.8404 62.896C28.6655 63.0376 29.4365 62.4276 29.2472 61.785C29.1795 61.5999 28.4085 60.8701 27.3129 59.9552C26.2985 59.1165 25 58.0165 24.4454 57.5045C20.6851 54.1281 16.7896 49.51 14.3143 45.5236C13.9221 44.8919 13.4892 44.271 13.3269 44.1294C12.9617 43.8136 12.1231 43.8027 11.7443 44.1076Z" fill="#00B0E8"/>
<path d="M50.7537 45.2404C50.1991 45.4364 49.9557 45.9484 50.1991 46.3949C50.4426 46.8633 53.8647 49.303 56.8269 51.1111C57.8008 51.7101 58.0984 51.8408 58.5312 51.8408C59.194 51.8408 59.6269 51.4923 59.6269 50.9586C59.6269 50.4902 59.5186 50.3813 58.4095 49.7169C57.138 48.9545 54.771 47.3643 53.1614 46.1989C52.4039 45.6543 51.7141 45.1968 51.66 45.1968C51.5923 45.1968 51.4571 45.175 51.3489 45.1424C51.2542 45.1206 50.9837 45.1641 50.7537 45.2404Z" fill="#00B0E8"/>
<path d="M31.222 48.9327C30.7756 49.107 30.5186 49.5753 30.6268 49.9456C30.6809 50.109 31.2761 50.7625 31.9389 51.3943C33.5485 52.9082 38.6749 57.0362 40.8391 58.5502C42.8003 59.9334 45.7626 61.8722 46.1954 62.0573C47.1828 62.4821 48.1837 61.6979 47.778 60.8374C47.7374 60.7394 47.1693 60.3255 46.52 59.9225C42.8274 57.5699 38.756 54.5529 35.7803 51.9715C34.6306 50.9695 33.4267 49.913 33.1292 49.608C32.3176 48.8129 31.8848 48.6604 31.222 48.9327Z" fill="#00B0E8"/>
<path d="M13.8139 53.2567C13.0564 53.5073 13.0429 54.237 13.8004 55.141C15.2206 56.8401 18.6157 60.2602 18.9944 60.38C19.7383 60.6087 20.5905 60.173 20.5905 59.5522C20.5905 59.1383 20.6175 59.171 18.7645 57.3303C18.0476 56.6114 16.9249 55.4242 16.2756 54.6945C14.9501 53.1914 14.6119 52.9953 13.8139 53.2567Z" fill="#00B0E8"/>
<path d="M44.7752 55.3589C44.4911 55.6094 44.3829 56.0995 44.5587 56.4481C44.6534 56.6441 46.777 58.0818 48.8601 59.3453C50.2262 60.1839 50.375 60.2493 50.8213 60.1839C51.43 60.1077 51.7817 59.7701 51.7817 59.2581C51.7817 58.7898 51.6329 58.6591 49.9421 57.6353C49.3335 57.2758 48.2108 56.557 47.4398 56.0451C46.2495 55.25 45.9655 55.1084 45.5462 55.1084C45.2215 55.1084 44.9781 55.1846 44.7752 55.3589Z" fill="#00B0E8"/>
<path d="M31.1138 59.4978C30.9244 59.6611 30.8162 59.8899 30.8162 60.1404C30.8162 60.4998 30.938 60.6414 32.0742 61.5127C32.7505 62.0464 33.8055 62.8306 34.4006 63.2663C35.3745 63.9634 35.5368 64.0396 36.0508 64.0396C36.4972 64.0396 36.673 63.9852 36.8895 63.7564C37.0518 63.5931 37.1735 63.3208 37.1735 63.1465C37.1735 62.7762 36.8624 62.5039 34.2248 60.5651C32.5881 59.3671 32.3853 59.2472 31.9254 59.2472C31.5602 59.2472 31.3167 59.3235 31.1138 59.4978Z" fill="#00B0E8"/>
</svg>
